<svg width="501" height="251" viewBox="0 0 501 251" fill="none" xmlns="http://www.w3.org/2000/svg">
<path d="M500.343 186.154V195.951C500.343 199.159 499.96 202.166 499.195 204.974C498.43 207.781 497.373 210.244 496.025 212.364C494.713 214.426 493.165 216.059 491.379 217.262C489.594 218.465 487.699 219.066 485.695 219.066H458.586C459.57 221.473 460.335 224.108 460.881 226.972C461.428 229.779 461.701 232.73 461.701 235.823V250.604H448.42V233.675C448.42 231.67 448.165 229.779 447.655 228.004C447.181 226.228 446.525 224.681 445.687 223.363C444.849 222.046 443.865 221.014 442.736 220.27C441.606 219.468 440.386 219.066 439.074 219.066H424.426C422.386 219.066 420.473 218.465 418.687 217.262C416.938 216.059 415.39 214.426 414.042 212.364C412.73 210.244 411.691 207.781 410.926 204.974C410.161 202.166 409.778 199.159 409.778 195.951V186.154H423.114V195.521C423.114 196.781 423.26 197.984 423.552 199.13C423.88 200.219 424.299 201.192 424.809 202.052C425.355 202.911 425.975 203.599 426.667 204.114C427.396 204.573 428.179 204.802 429.017 204.802H481.104C481.905 204.802 482.671 204.573 483.399 204.114C484.128 203.599 484.748 202.911 485.258 202.052C485.804 201.192 486.223 200.219 486.515 199.13C486.843 197.984 487.007 196.781 487.007 195.521V186.154H500.343Z" fill="#49FEF0"/>
<path d="M397.229 200.333C397.739 201.995 398.14 203.77 398.431 205.661C398.723 207.494 398.868 209.413 398.868 211.418V225.34C398.868 227.345 398.723 229.264 398.431 231.097C398.176 232.873 397.794 234.592 397.283 236.253C396.19 239.92 394.605 243.013 392.528 245.534C390.488 247.997 388.156 249.573 385.533 250.26C385.314 250.375 385.077 250.461 384.822 250.518C384.603 250.518 384.367 250.547 384.111 250.604H308.687V186.154C322.861 186.154 335.559 186.183 346.782 186.24C349.952 186.24 353.104 186.269 356.237 186.326C359.371 186.326 362.359 186.326 365.201 186.326C368.043 186.326 370.684 186.355 373.126 186.412C375.567 186.412 377.699 186.412 379.52 186.412C381.342 186.412 382.782 186.441 383.838 186.498C384.895 186.498 385.46 186.498 385.533 186.498C388.12 187.185 390.433 188.761 392.474 191.224C394.514 193.688 396.099 196.724 397.229 200.333ZM385.533 211.075C385.533 209.585 385.35 208.21 384.986 206.95C384.658 205.632 384.184 204.487 383.565 203.513C382.945 202.539 382.217 201.794 381.379 201.278C380.577 200.706 379.703 200.419 378.755 200.419H331.861V200.333H322.023V236.339H331.861V236.253H379.575C380.413 236.138 381.197 235.795 381.925 235.222C382.654 234.592 383.273 233.818 383.784 232.902C384.33 231.928 384.749 230.839 385.041 229.636C385.369 228.376 385.533 227.058 385.533 225.683V211.075Z" fill="#49FEF0"/>
<path d="M296.138 200.333C296.648 201.995 297.049 203.77 297.34 205.661C297.632 207.494 297.777 209.413 297.777 211.418V225.34C297.777 227.345 297.632 229.264 297.34 231.097C297.085 232.873 296.702 234.592 296.192 236.253C295.099 239.92 293.514 243.013 291.437 245.534C289.397 247.997 287.065 249.573 284.441 250.26C284.223 250.375 283.986 250.461 283.731 250.518C283.512 250.518 283.275 250.547 283.02 250.604H207.596V186.154C221.77 186.154 234.468 186.183 245.691 186.24C248.861 186.24 252.012 186.269 255.146 186.326C258.28 186.326 261.267 186.326 264.109 186.326C266.952 186.326 269.593 186.355 272.035 186.412C274.476 186.412 276.607 186.412 278.429 186.412C280.251 186.412 281.69 186.441 282.747 186.498C283.804 186.498 284.368 186.498 284.441 186.498C287.028 187.185 289.342 188.761 291.383 191.224C293.423 193.688 295.008 196.724 296.138 200.333ZM284.441 211.075C284.441 209.585 284.259 208.21 283.895 206.95C283.567 205.632 283.093 204.487 282.474 203.513C281.854 202.539 281.126 201.794 280.288 201.278C279.486 200.706 278.611 200.419 277.664 200.419H230.77V200.333H220.932V236.339H230.77V236.253H278.484C279.322 236.138 280.105 235.795 280.834 235.222C281.563 234.592 282.182 233.818 282.692 232.902C283.239 231.928 283.658 230.839 283.949 229.636C284.277 228.376 284.441 227.058 284.441 225.683V211.075Z" fill="#49FEF0"/>
<path d="M119.477 250.604C117.255 250.604 115.16 249.945 113.192 248.627C111.261 247.31 109.567 245.505 108.109 243.214C106.652 240.922 105.504 238.258 104.666 235.222C103.828 232.128 103.409 228.834 103.409 225.34V186.154H116.745V225.683C116.745 227.173 116.909 228.576 117.237 229.894C117.601 231.154 118.093 232.272 118.712 233.245C119.332 234.219 120.042 234.993 120.844 235.566C121.682 236.138 122.575 236.425 123.522 236.425H180.637V186.154H193.918V250.604H119.477Z" fill="#49FEF0"/>
<path d="M90.852 206.005C90.852 208.354 90.597 210.588 90.0869 212.707C89.6132 214.827 88.9209 216.718 88.0099 218.379C88.9209 220.098 89.6132 222.017 90.0869 224.137C90.597 226.199 90.852 228.462 90.852 230.925C90.852 233.618 90.5241 236.167 89.8682 238.573C89.2124 240.979 88.3014 243.07 87.1355 244.846C86.0059 246.622 84.676 248.026 83.1456 249.057C81.6517 250.088 80.0302 250.604 78.2813 250.604H0.342529V186.154H78.2813C80.0302 186.154 81.6517 186.67 83.1456 187.701C84.676 188.732 86.0059 190.164 87.1355 191.998C88.3014 193.774 89.2124 195.865 89.8682 198.271C90.5241 200.677 90.852 203.255 90.852 206.005ZM16.2473 200.419C17.1946 203.57 18.6157 206.119 20.5104 208.067C22.4051 210.015 24.5367 210.989 26.9051 210.989H75.4392C76.0586 210.531 76.5687 209.872 76.9695 209.012C77.3703 208.153 77.5707 207.15 77.5707 206.005C77.5707 204.458 77.2246 203.14 76.5323 202.052C75.84 200.963 74.9837 200.419 73.9635 200.419H16.2473ZM77.5707 230.925C77.5707 229.779 77.3703 228.748 76.9695 227.832C76.5687 226.858 76.0586 226.142 75.4392 225.683H26.9051C24.0266 225.683 21.2756 224.824 18.6521 223.105C17.7412 222.475 16.8485 221.788 15.974 221.043C15.136 220.298 14.3526 219.439 13.6238 218.465V236.425H73.9635C74.9837 236.425 75.84 235.881 76.5323 234.792C77.2246 233.704 77.5707 232.415 77.5707 230.925Z" fill="#49FEF0"/>
<path d="M382.192 149.375V149.289L382.247 149.375H382.192ZM368.364 140.008C369.312 143.102 370.696 145.623 372.518 147.57C374.376 149.461 376.453 150.406 378.749 150.406H405.749V164.671H374.486C371.789 164.671 369.257 163.926 366.889 162.437C364.52 160.947 362.407 158.856 360.549 156.164C360.439 155.992 360.33 155.82 360.221 155.648C360.148 155.476 360.057 155.304 359.947 155.132C358.636 153.07 357.506 150.779 356.559 148.258C355.611 145.68 354.919 142.93 354.482 140.008H339.506C337.976 140.123 336.537 140.667 335.188 141.641C333.84 142.558 332.638 143.847 331.581 145.508C330.597 146.998 329.814 148.716 329.231 150.664C328.684 152.555 328.338 154.56 328.192 156.679V156.765V164.671H328.138H314.802V100.221H393.123C394.872 100.221 396.512 100.766 398.042 101.854C399.573 102.885 400.903 104.318 402.032 106.151C403.198 107.927 404.109 110.018 404.765 112.424C405.457 114.83 405.803 117.408 405.803 120.158C405.803 122.908 405.457 125.486 404.765 127.892C404.109 130.298 403.198 132.418 402.032 134.251C400.903 136.027 399.573 137.43 398.042 138.462C396.512 139.493 394.872 140.008 393.123 140.008H368.364ZM388.86 125.743C389.844 125.743 390.682 125.199 391.374 124.111C391.666 123.595 391.903 123.022 392.085 122.392C392.303 121.705 392.413 120.96 392.413 120.158C392.413 118.611 392.067 117.293 391.374 116.205C390.682 115.059 389.844 114.486 388.86 114.486H328.192V131.329C328.739 130.699 329.304 130.155 329.887 129.696C330.47 129.238 331.071 128.78 331.69 128.321C333.731 127.004 335.753 126.173 337.757 125.829H338.741C338.996 125.829 339.233 125.829 339.452 125.829C339.67 125.772 339.816 125.743 339.889 125.743H388.86Z" fill="#49FEF0"/>
<path d="M226.683 164.671C224.461 164.671 222.366 164.012 220.398 162.695C218.467 161.377 216.773 159.572 215.315 157.281C213.858 154.989 212.71 152.325 211.872 149.289C211.034 146.195 210.615 142.901 210.615 139.407V100.221H223.951V139.751C223.951 141.24 224.115 142.644 224.443 143.961C224.807 145.222 225.299 146.339 225.918 147.313C226.538 148.287 227.248 149.06 228.05 149.633C228.888 150.206 229.781 150.492 230.728 150.492H287.843V100.221H301.124V164.671H226.683Z" fill="#49FEF0"/>
<path d="M90.9067 100.221V110.018C90.9067 113.226 90.5241 116.234 89.7589 119.041C88.9937 121.848 87.9371 124.311 86.5889 126.431C85.2772 128.493 83.7286 130.126 81.9432 131.329C80.1578 132.532 78.2631 133.134 76.259 133.134H49.1499C50.1337 135.54 50.8989 138.175 51.4454 141.04C51.992 143.847 52.2653 146.797 52.2653 149.891V164.671H38.984V147.742C38.984 145.737 38.7289 143.847 38.2188 142.071C37.7451 140.295 37.0892 138.748 36.2512 137.43C35.4131 136.113 34.4293 135.082 33.2998 134.337C32.1702 133.535 30.9496 133.134 29.6379 133.134H14.9902C12.9497 133.134 11.0368 132.532 9.25138 131.329C7.5024 130.126 5.95383 128.493 4.60566 126.431C3.29393 124.311 2.25547 121.848 1.49029 119.041C0.725118 116.234 0.342529 113.226 0.342529 110.018V100.221H13.6785V109.588C13.6785 110.848 13.8242 112.052 14.1157 113.197C14.4436 114.286 14.8627 115.26 15.3728 116.119C15.9193 116.978 16.5388 117.666 17.2311 118.181C17.9598 118.64 18.7432 118.869 19.5813 118.869H71.668C72.4696 118.869 73.2347 118.64 73.9635 118.181C74.6922 117.666 75.3117 116.978 75.8218 116.119C76.3683 115.26 76.7873 114.286 77.0788 113.197C77.4068 112.052 77.5707 110.848 77.5707 109.588V100.221H90.9067Z" fill="#49FEF0"/>
<path d="M402.186 15.1265V0.861633V15.1265ZM325.012 15.1265V31.6256C326.214 30.2507 327.544 29.0762 329.002 28.1023C331.698 26.3264 334.486 25.4384 337.364 25.4384H368.9V39.7033H337.364C334.85 39.7033 332.573 40.7631 330.532 42.8828C328.528 44.9452 327.052 47.6664 326.105 51.0464H402.186V65.3112H311.676V0.861633H402.186V15.1265H325.012ZM402.186 15.1265V0.861633V15.1265Z" fill="#49FEF0"/>
<path d="M297.998 47.4372C297.998 50.0152 297.707 52.5072 297.124 54.9134C296.577 57.2622 295.812 59.3819 294.828 61.2724C293.845 63.1629 292.66 64.767 291.276 66.0846C289.928 67.4023 288.434 68.3189 286.794 68.8345L252.744 79.5761L218.693 68.8345C217.054 68.3189 215.541 67.4023 214.157 66.0846C212.809 64.767 211.643 63.1629 210.659 61.2724C209.675 59.3819 208.892 57.2622 208.309 54.9134C207.762 52.5072 207.489 50.0152 207.489 47.4372V0.861633H220.825V45.203C220.825 46.9216 221.171 48.4684 221.863 49.8433C222.556 51.161 223.43 51.9916 224.487 52.3354L252.744 61.9599L281.001 52.3354C282.057 51.9916 282.932 51.161 283.624 49.8433C284.316 48.4684 284.662 46.9216 284.662 45.203V0.861633H297.998V47.4372Z" fill="#49FEF0"/>
<path d="M194.194 65.3112H180.804V41.9375C180.257 42.5104 179.692 43.0546 179.109 43.5702C178.563 44.0285 177.98 44.4582 177.36 44.8592C174.773 46.5779 172.095 47.4372 169.326 47.4372H128.498C126.895 47.4372 125.383 47.9241 123.962 48.8981C122.577 49.8147 121.357 51.1037 120.3 52.765C119.28 54.3691 118.46 56.2883 117.84 58.5225C117.257 60.6995 116.966 63.0197 116.966 65.4831L103.302 65.3112V25.954C103.302 22.4594 103.721 19.1653 104.559 16.0717C105.397 12.9781 106.545 10.2856 108.002 7.99404C109.46 5.7025 111.173 3.89791 113.14 2.58028C115.108 1.26264 117.203 0.603821 119.426 0.603821H194.194V65.3112ZM169.326 33.0864C170.893 33.0864 172.368 32.6281 173.753 31.7115C175.174 30.7376 176.395 29.4486 177.415 27.8445C178.472 26.1831 179.291 24.264 179.874 22.087C180.494 19.9101 180.804 17.5612 180.804 15.0405V14.9546V14.8687H123.525C122.577 14.8687 121.685 15.1551 120.847 15.728C120.008 16.3009 119.28 17.0743 118.66 18.0482C118.041 19.0221 117.549 20.1679 117.185 21.4855C116.857 22.7458 116.693 24.1208 116.693 25.6103V39.0158C117.276 38.3283 117.877 37.7268 118.496 37.2112C119.152 36.6383 119.808 36.1227 120.464 35.6644C123.015 33.9457 125.693 33.0864 128.498 33.0864H169.326Z" fill="#49FEF0"/>
<path d="M13.6785 20.5402C13.6785 22.087 14.0064 23.376 14.6623 24.4072C15.0266 24.8655 15.4092 25.2665 15.81 25.6103C16.2108 25.8967 16.6663 26.0399 17.1764 26.0399H78.1173C79.5383 26.0399 80.9047 26.4123 82.2165 27.1571C83.5282 27.8445 84.7124 28.8184 85.7691 30.0788C86.8257 31.2818 87.7367 32.7427 88.5018 34.4614C89.267 36.18 89.85 38.0419 90.2508 40.047C90.5787 41.7656 90.7427 43.5989 90.7427 45.5467C90.7427 48.2965 90.4148 50.8745 89.7589 53.2806C89.103 55.6295 88.1921 57.6919 87.0261 59.4678C85.8966 61.2437 84.5666 62.6473 83.0363 63.6785C81.5059 64.7097 79.8663 65.2253 78.1173 65.2253H0.342529V51.0464H73.8542C74.838 51.0464 75.6942 50.5308 76.423 49.4996C77.0788 48.4684 77.4068 47.1508 77.4068 45.5467C77.4068 44.0572 77.0606 42.7682 76.3683 41.6797C75.676 40.5912 74.838 40.047 73.8542 40.047H12.9133C11.4922 40.047 10.1259 39.7033 8.81413 39.0158C7.53884 38.3283 6.37285 37.3544 5.31618 36.0941C4.25951 34.8337 3.33036 33.3442 2.52875 31.6256C1.76357 29.9069 1.1988 28.045 0.834429 26.0399C0.506496 24.3213 0.342529 22.4881 0.342529 20.5402C0.342529 17.7904 0.670462 15.2411 1.32633 12.8922C1.98219 10.4861 2.8749 8.39508 4.00445 6.61913C5.17043 4.84319 6.50038 3.43962 7.9943 2.40842C9.52465 1.37723 11.1643 0.861633 12.9133 0.861633H90.7427V15.0405H17.1764C16.2291 15.0405 15.4092 15.5848 14.7169 16.6733C14.0246 17.7045 13.6785 18.9935 13.6785 20.5402Z" fill="#49FEF0"/>
<path fill-rule="evenodd" clip-rule="evenodd" d="M136.242 84.3707C136.242 82.146 138.05 80.3426 140.281 80.3426H157.047C159.277 80.3426 161.085 82.146 161.085 84.3707V100.221H118.629C116.304 100.336 114.129 101.081 112.105 102.456C110.117 103.773 108.393 105.578 106.93 107.869C105.468 110.161 104.305 112.825 103.443 115.861C102.581 118.897 102.131 122.106 102.093 125.486V139.407C102.093 142.901 102.524 146.195 103.387 149.289C104.287 152.325 105.487 154.989 106.986 157.281C108.486 159.572 110.23 161.377 112.217 162.695C114.242 164.012 116.379 164.671 118.629 164.671H178.698C180.948 164.671 183.066 164.012 185.054 162.695C187.078 161.377 188.841 159.572 190.341 157.281C191.84 154.989 193.021 152.325 193.884 149.289C194.784 146.195 195.234 142.901 195.234 139.407V125.486C195.234 122.392 194.878 119.442 194.165 116.635C193.49 113.827 192.534 111.335 191.297 109.158C190.059 106.924 188.597 105.062 186.91 103.573C185.26 102.083 183.46 101.081 181.51 100.565C181.06 100.451 180.591 100.365 180.104 100.307C179.654 100.25 179.185 100.221 178.698 100.221H174.548V84.3707C174.548 74.7305 166.712 66.9156 157.047 66.9156H140.281C130.615 66.9156 122.779 74.7305 122.779 84.3707V91.5319H136.242V84.3707ZM133.709 138.929C133.709 127.116 148.663 110.419 148.663 110.419C148.663 110.419 163.618 127.116 163.618 138.929C163.618 148.248 157.84 154.116 148.663 154.116C139.487 154.116 133.709 148.248 133.709 138.929ZM150.325 147.365C150.325 148.064 150.896 148.641 151.587 148.537C153.433 148.261 155.156 147.39 156.491 146.034C157.835 144.669 158.696 142.905 158.961 141.016C159.057 140.334 158.49 139.772 157.801 139.772C157.113 139.772 156.568 140.335 156.435 141.009C156.195 142.226 155.606 143.354 154.729 144.245C153.861 145.126 152.764 145.721 151.58 145.97C150.897 146.113 150.325 146.666 150.325 147.365Z" fill="#49FEF0"/>
</svg>
